<svg width="155" height="113" viewBox="0 0 155 113" fill="none" xmlns="http://www.w3.org/2000/svg">
<path d="M0 19.25C0 14.3103 2.04129 9.573 5.67481 6.08014C9.30832 2.58727 14.2364 0.625 19.375 0.625H135.625C140.764 0.625 145.692 2.58727 149.325 6.08014C152.959 9.573 155 14.3103 155 19.25V93.75C155 98.6897 152.959 103.427 149.325 106.92C145.692 110.413 140.764 112.375 135.625 112.375H19.375C14.2364 112.375 9.30832 110.413 5.67481 106.92C2.04129 103.427 0 98.6897 0 93.75V19.25ZM19.375 9.9375C16.8057 9.9375 14.3417 10.9186 12.5249 12.6651C10.7081 14.4115 9.6875 16.7802 9.6875 19.25V21.2708L77.5 60.3833L145.312 21.2708V19.25C145.312 16.7802 144.292 14.4115 142.475 12.6651C140.658 10.9186 138.194 9.9375 135.625 9.9375H19.375ZM145.312 32.1292L99.7037 58.437L145.312 85.4153V32.1292ZM144.983 96.1619L90.3456 63.8383L77.5 71.2417L64.6544 63.8383L10.0169 96.1526C10.5674 98.1343 11.7831 99.8858 13.4752 101.135C15.1674 102.385 17.2413 103.062 19.375 103.062H135.625C137.757 103.063 139.83 102.387 141.522 101.139C143.214 99.8913 144.431 98.1419 144.983 96.1619ZM9.6875 85.4153L55.2963 58.437L9.6875 32.1292V85.4153Z" fill="#FB2576"/>
</svg>
