<svg width="204" height="194" viewBox="0 0 204 194" fill="none" xmlns="http://www.w3.org/2000/svg">
<path d="M102 0C45.645 0 0 43.4075 0 97C0 139.922 29.1975 176.176 69.7425 189.029C74.8425 189.878 76.755 186.968 76.755 184.421C76.755 182.118 76.6275 174.479 76.6275 166.355C51 170.841 44.37 160.414 42.33 154.957C41.1825 152.169 36.21 143.56 31.875 141.256C28.305 139.437 23.205 134.951 31.7475 134.83C39.78 134.709 45.5175 141.862 47.43 144.772C56.61 159.444 71.2725 155.321 77.1375 152.775C78.03 146.47 80.7075 142.226 83.64 139.801C60.945 137.376 37.23 129.01 37.23 91.9075C37.23 81.3587 41.1825 72.6287 47.685 65.8387C46.665 63.4137 43.095 53.4712 48.705 40.1337C48.705 40.1337 57.2475 37.5875 76.755 50.0763C84.915 47.8938 93.585 46.8025 102.255 46.8025C110.925 46.8025 119.595 47.8938 127.755 50.0763C147.263 37.4663 155.805 40.1337 155.805 40.1337C161.415 53.4712 157.845 63.4137 156.825 65.8387C163.328 72.6287 167.28 81.2375 167.28 91.9075C167.28 129.131 143.438 137.376 120.743 139.801C124.44 142.832 127.628 148.653 127.628 157.746C127.628 170.72 127.5 181.148 127.5 184.421C127.5 186.968 129.413 189.999 134.513 189.029C154.762 182.53 172.359 170.154 184.824 153.645C197.29 137.136 203.996 117.324 204 97C204 43.4075 158.355 0 102 0Z" fill="#FB2576"/>
</svg>
