<svg width="111" height="112" viewBox="0 0 111 112" fill="none" xmlns="http://www.w3.org/2000/svg">
<path d="M94.3569 16.2823C89.2681 11.1001 83.2079 6.99155 76.5296 4.19618C69.8514 1.40081 62.6885 -0.0255099 55.4584 0.000345314C25.1623 0.000345314 0.47175 24.9063 0.444 55.4823C0.444 65.2753 2.98313 74.8023 7.77694 83.2373L0 112L29.1652 104.286C37.2336 108.717 46.2726 111.039 55.4584 111.041H55.4861C85.7891 111.041 110.473 86.1353 110.501 55.5313C110.507 48.2376 109.084 41.0147 106.312 34.2785C103.54 27.5423 99.4818 21.4262 94.3569 16.2823ZM55.4584 101.647C47.2652 101.65 39.2226 99.4255 32.1761 95.2073L30.5111 94.1993L13.209 98.7773L17.8294 81.7464L16.7471 79.9893C12.167 72.6416 9.74474 64.1345 9.76106 55.4543C9.76106 30.0723 30.2753 9.36635 55.4861 9.36635C61.4922 9.35547 67.441 10.5443 72.9896 12.8642C78.5382 15.1841 83.5768 18.5893 87.8149 22.8833C92.0678 27.1607 95.4393 32.2453 97.735 37.844C100.031 43.4426 101.205 49.4445 101.19 55.5033C101.163 80.9763 80.6484 101.647 55.4584 101.647ZM80.5374 67.1093C79.1708 66.4163 72.4206 63.0633 71.151 62.5873C69.8884 62.1323 68.9657 61.8943 68.0638 63.2803C67.1411 64.6593 64.5049 67.8023 63.714 68.7053C62.9231 69.6363 62.1045 69.7413 60.7309 69.0553C59.3642 68.3553 54.9311 66.8993 49.6864 62.1603C45.5933 58.4853 42.8529 53.9353 42.0343 52.5563C41.2434 51.1703 41.958 50.4283 42.6448 49.7353C43.2484 49.1193 44.0115 48.1113 44.6983 47.3133C45.3921 46.5153 45.621 45.9273 46.0719 45.0033C46.5229 44.0653 46.3078 43.2673 45.9679 42.5743C45.621 41.8813 42.8807 35.0423 41.7221 32.2843C40.6121 29.5613 39.4813 29.9393 38.6349 29.9043C37.8441 29.8553 36.9214 29.8553 35.9987 29.8553C35.3019 29.8728 34.6162 30.0354 33.9847 30.333C33.3531 30.6305 32.7894 31.0565 32.3287 31.5843C31.0661 32.9703 27.5349 36.3233 27.5349 43.1623C27.5349 50.0013 32.4606 56.5743 33.1543 57.5053C33.8342 58.4363 42.8252 72.4293 56.6239 78.4493C59.8845 79.8843 62.4514 80.7313 64.4563 81.3753C67.7516 82.4393 70.7278 82.2783 73.1004 81.9353C75.7367 81.5293 81.2243 78.5753 82.3828 75.3343C83.5206 72.0863 83.5206 69.3143 83.1737 68.7333C82.8338 68.1453 81.9111 67.8023 80.5374 67.1093Z" fill="#FB2576"/>
</svg>
